<mxfile host="app.diagrams.net" modified="2023-08-10T04:14:57.202Z" agent="Mozilla/5.0 (Macintosh; Intel Mac OS X 10_15_7) AppleWebKit/537.36 (KHTML, like Gecko) Chrome/115.0.0.0 Safari/537.36" etag="gDnye9hfd3g7Fkf5Xd_f" version="21.5.2" type="github">
  <diagram id="C5RBs43oDa-KdzZeNtuy" name="Page-1">
    <mxGraphModel dx="954" dy="500" grid="1" gridSize="10" guides="1" tooltips="1" connect="1" arrows="1" fold="1" page="1" pageScale="1" pageWidth="1200" pageHeight="1920" background="#ffffff" math="0" shadow="0">
      <root>
        <mxCell id="WIyWlLk6GJQsqaUBKTNV-0" />
        <mxCell id="WIyWlLk6GJQsqaUBKTNV-1" parent="WIyWlLk6GJQsqaUBKTNV-0" />
        <mxCell id="2e_g-QVYGHSv_7SJw1xX-2" value="" style="edgeStyle=orthogonalEdgeStyle;rounded=0;orthogonalLoop=1;jettySize=auto;html=1;strokeColor=#457B9D;fontColor=#1D3557;fillColor=#A8DADC;" parent="WIyWlLk6GJQsqaUBKTNV-1" source="2e_g-QVYGHSv_7SJw1xX-0" target="2e_g-QVYGHSv_7SJw1xX-1" edge="1">
          <mxGeometry relative="1" as="geometry" />
        </mxCell>
        <mxCell id="2e_g-QVYGHSv_7SJw1xX-0" value="开始" style="rounded=1;whiteSpace=wrap;html=1;strokeColor=#457B9D;fontColor=#1D3557;fillColor=#A8DADC;" parent="WIyWlLk6GJQsqaUBKTNV-1" vertex="1">
          <mxGeometry x="250" y="20" width="120" height="60" as="geometry" />
        </mxCell>
        <mxCell id="2e_g-QVYGHSv_7SJw1xX-4" value="" style="edgeStyle=orthogonalEdgeStyle;rounded=0;orthogonalLoop=1;jettySize=auto;html=1;strokeColor=#457B9D;fontColor=#1D3557;fillColor=#A8DADC;" parent="WIyWlLk6GJQsqaUBKTNV-1" source="2e_g-QVYGHSv_7SJw1xX-1" target="2e_g-QVYGHSv_7SJw1xX-3" edge="1">
          <mxGeometry relative="1" as="geometry" />
        </mxCell>
        <mxCell id="2e_g-QVYGHSv_7SJw1xX-9" value="" style="edgeStyle=orthogonalEdgeStyle;rounded=0;orthogonalLoop=1;jettySize=auto;html=1;strokeColor=#457B9D;fontColor=#1D3557;fillColor=#A8DADC;" parent="WIyWlLk6GJQsqaUBKTNV-1" source="2e_g-QVYGHSv_7SJw1xX-1" target="2e_g-QVYGHSv_7SJw1xX-8" edge="1">
          <mxGeometry relative="1" as="geometry" />
        </mxCell>
        <mxCell id="2e_g-QVYGHSv_7SJw1xX-1" value="是否有项目投入权限" style="rhombus;whiteSpace=wrap;html=1;fillColor=#A8DADC;strokeColor=#457B9D;fontColor=#1D3557;rounded=1;" parent="WIyWlLk6GJQsqaUBKTNV-1" vertex="1">
          <mxGeometry x="270" y="150" width="80" height="80" as="geometry" />
        </mxCell>
        <mxCell id="2e_g-QVYGHSv_7SJw1xX-7" value="" style="edgeStyle=orthogonalEdgeStyle;rounded=0;orthogonalLoop=1;jettySize=auto;html=1;strokeColor=#457B9D;fontColor=#1D3557;fillColor=#A8DADC;" parent="WIyWlLk6GJQsqaUBKTNV-1" source="2e_g-QVYGHSv_7SJw1xX-3" target="2e_g-QVYGHSv_7SJw1xX-6" edge="1">
          <mxGeometry relative="1" as="geometry" />
        </mxCell>
        <mxCell id="2e_g-QVYGHSv_7SJw1xX-3" value="权限不足" style="whiteSpace=wrap;html=1;fillColor=#A8DADC;strokeColor=#457B9D;fontColor=#1D3557;rounded=1;" parent="WIyWlLk6GJQsqaUBKTNV-1" vertex="1">
          <mxGeometry x="410" y="160" width="120" height="60" as="geometry" />
        </mxCell>
        <mxCell id="2e_g-QVYGHSv_7SJw1xX-5" value="否" style="text;html=1;align=center;verticalAlign=middle;resizable=0;points=[];autosize=1;strokeColor=none;fillColor=none;fontColor=#1D3557;" parent="WIyWlLk6GJQsqaUBKTNV-1" vertex="1">
          <mxGeometry x="350" y="158" width="40" height="30" as="geometry" />
        </mxCell>
        <mxCell id="2e_g-QVYGHSv_7SJw1xX-6" value="结束" style="whiteSpace=wrap;html=1;fillColor=#A8DADC;strokeColor=#457B9D;fontColor=#1D3557;rounded=1;" parent="WIyWlLk6GJQsqaUBKTNV-1" vertex="1">
          <mxGeometry x="610" y="160" width="120" height="60" as="geometry" />
        </mxCell>
        <mxCell id="2e_g-QVYGHSv_7SJw1xX-11" value="" style="edgeStyle=orthogonalEdgeStyle;rounded=0;orthogonalLoop=1;jettySize=auto;html=1;strokeColor=#457B9D;fontColor=#1D3557;fillColor=#A8DADC;" parent="WIyWlLk6GJQsqaUBKTNV-1" source="2e_g-QVYGHSv_7SJw1xX-8" target="2e_g-QVYGHSv_7SJw1xX-10" edge="1">
          <mxGeometry relative="1" as="geometry" />
        </mxCell>
        <mxCell id="2e_g-QVYGHSv_7SJw1xX-18" value="" style="edgeStyle=orthogonalEdgeStyle;rounded=0;orthogonalLoop=1;jettySize=auto;html=1;strokeColor=#457B9D;fontColor=#1D3557;fillColor=#A8DADC;" parent="WIyWlLk6GJQsqaUBKTNV-1" source="2e_g-QVYGHSv_7SJw1xX-8" target="2e_g-QVYGHSv_7SJw1xX-17" edge="1">
          <mxGeometry relative="1" as="geometry" />
        </mxCell>
        <mxCell id="2e_g-QVYGHSv_7SJw1xX-8" value="本次投入数量是否大于等于最小限额" style="rhombus;whiteSpace=wrap;html=1;fillColor=#A8DADC;strokeColor=#457B9D;fontColor=#1D3557;rounded=1;" parent="WIyWlLk6GJQsqaUBKTNV-1" vertex="1">
          <mxGeometry x="270" y="310" width="80" height="80" as="geometry" />
        </mxCell>
        <mxCell id="2e_g-QVYGHSv_7SJw1xX-14" value="" style="edgeStyle=orthogonalEdgeStyle;rounded=0;orthogonalLoop=1;jettySize=auto;html=1;strokeColor=#457B9D;fontColor=#1D3557;fillColor=#A8DADC;" parent="WIyWlLk6GJQsqaUBKTNV-1" source="2e_g-QVYGHSv_7SJw1xX-10" target="2e_g-QVYGHSv_7SJw1xX-13" edge="1">
          <mxGeometry relative="1" as="geometry" />
        </mxCell>
        <mxCell id="2e_g-QVYGHSv_7SJw1xX-10" value="投入数量不符合规则" style="whiteSpace=wrap;html=1;fillColor=#A8DADC;strokeColor=#457B9D;fontColor=#1D3557;rounded=1;" parent="WIyWlLk6GJQsqaUBKTNV-1" vertex="1">
          <mxGeometry x="410" y="320" width="120" height="60" as="geometry" />
        </mxCell>
        <mxCell id="2e_g-QVYGHSv_7SJw1xX-12" value="否" style="text;html=1;align=center;verticalAlign=middle;resizable=0;points=[];autosize=1;strokeColor=none;fillColor=none;fontColor=#1D3557;" parent="WIyWlLk6GJQsqaUBKTNV-1" vertex="1">
          <mxGeometry x="350" y="318" width="40" height="30" as="geometry" />
        </mxCell>
        <mxCell id="2e_g-QVYGHSv_7SJw1xX-13" value="结束" style="whiteSpace=wrap;html=1;fillColor=#A8DADC;strokeColor=#457B9D;fontColor=#1D3557;rounded=1;" parent="WIyWlLk6GJQsqaUBKTNV-1" vertex="1">
          <mxGeometry x="610" y="320" width="120" height="60" as="geometry" />
        </mxCell>
        <mxCell id="2e_g-QVYGHSv_7SJw1xX-20" value="" style="edgeStyle=orthogonalEdgeStyle;rounded=0;orthogonalLoop=1;jettySize=auto;html=1;strokeColor=#457B9D;fontColor=#1D3557;fillColor=#A8DADC;" parent="WIyWlLk6GJQsqaUBKTNV-1" source="2e_g-QVYGHSv_7SJw1xX-17" target="2e_g-QVYGHSv_7SJw1xX-19" edge="1">
          <mxGeometry relative="1" as="geometry" />
        </mxCell>
        <mxCell id="2e_g-QVYGHSv_7SJw1xX-25" value="" style="edgeStyle=orthogonalEdgeStyle;rounded=0;orthogonalLoop=1;jettySize=auto;html=1;strokeColor=#457B9D;fontColor=#1D3557;fillColor=#A8DADC;entryX=0.5;entryY=0;entryDx=0;entryDy=0;" parent="WIyWlLk6GJQsqaUBKTNV-1" source="2e_g-QVYGHSv_7SJw1xX-17" target="2e_g-QVYGHSv_7SJw1xX-58" edge="1">
          <mxGeometry relative="1" as="geometry">
            <mxPoint x="310" y="770" as="targetPoint" />
          </mxGeometry>
        </mxCell>
        <mxCell id="2e_g-QVYGHSv_7SJw1xX-17" value="剩余可投额度是否足够" style="rhombus;whiteSpace=wrap;html=1;fillColor=#A8DADC;strokeColor=#457B9D;fontColor=#1D3557;rounded=1;" parent="WIyWlLk6GJQsqaUBKTNV-1" vertex="1">
          <mxGeometry x="270" y="470" width="80" height="80" as="geometry" />
        </mxCell>
        <mxCell id="2e_g-QVYGHSv_7SJw1xX-23" value="" style="edgeStyle=orthogonalEdgeStyle;rounded=0;orthogonalLoop=1;jettySize=auto;html=1;strokeColor=#457B9D;fontColor=#1D3557;fillColor=#A8DADC;" parent="WIyWlLk6GJQsqaUBKTNV-1" source="2e_g-QVYGHSv_7SJw1xX-19" target="2e_g-QVYGHSv_7SJw1xX-22" edge="1">
          <mxGeometry relative="1" as="geometry" />
        </mxCell>
        <mxCell id="2e_g-QVYGHSv_7SJw1xX-19" value="剩余可投额度不足" style="whiteSpace=wrap;html=1;fillColor=#A8DADC;strokeColor=#457B9D;fontColor=#1D3557;rounded=1;" parent="WIyWlLk6GJQsqaUBKTNV-1" vertex="1">
          <mxGeometry x="410" y="480" width="120" height="60" as="geometry" />
        </mxCell>
        <mxCell id="2e_g-QVYGHSv_7SJw1xX-21" value="否" style="text;html=1;align=center;verticalAlign=middle;resizable=0;points=[];autosize=1;strokeColor=none;fillColor=none;fontColor=#1D3557;" parent="WIyWlLk6GJQsqaUBKTNV-1" vertex="1">
          <mxGeometry x="340" y="478" width="40" height="30" as="geometry" />
        </mxCell>
        <mxCell id="2e_g-QVYGHSv_7SJw1xX-22" value="结束" style="whiteSpace=wrap;html=1;fillColor=#A8DADC;strokeColor=#457B9D;fontColor=#1D3557;rounded=1;" parent="WIyWlLk6GJQsqaUBKTNV-1" vertex="1">
          <mxGeometry x="610" y="480" width="120" height="60" as="geometry" />
        </mxCell>
        <mxCell id="2e_g-QVYGHSv_7SJw1xX-38" value="" style="edgeStyle=orthogonalEdgeStyle;rounded=0;orthogonalLoop=1;jettySize=auto;html=1;strokeColor=#457B9D;fontColor=#1D3557;fillColor=#A8DADC;" parent="WIyWlLk6GJQsqaUBKTNV-1" source="2e_g-QVYGHSv_7SJw1xX-31" target="2e_g-QVYGHSv_7SJw1xX-37" edge="1">
          <mxGeometry relative="1" as="geometry" />
        </mxCell>
        <mxCell id="2e_g-QVYGHSv_7SJw1xX-52" value="" style="edgeStyle=orthogonalEdgeStyle;rounded=0;orthogonalLoop=1;jettySize=auto;html=1;strokeColor=#457B9D;fontColor=#1D3557;fillColor=#A8DADC;" parent="WIyWlLk6GJQsqaUBKTNV-1" source="2e_g-QVYGHSv_7SJw1xX-31" target="2e_g-QVYGHSv_7SJw1xX-51" edge="1">
          <mxGeometry relative="1" as="geometry" />
        </mxCell>
        <mxCell id="2e_g-QVYGHSv_7SJw1xX-31" value="扣减用户资产&lt;br&gt;生成流水" style="whiteSpace=wrap;html=1;fillColor=#A8DADC;strokeColor=#457B9D;fontColor=#1D3557;rounded=1;" parent="WIyWlLk6GJQsqaUBKTNV-1" vertex="1">
          <mxGeometry x="250" y="949" width="120" height="60" as="geometry" />
        </mxCell>
        <mxCell id="2e_g-QVYGHSv_7SJw1xX-45" value="" style="edgeStyle=orthogonalEdgeStyle;rounded=0;orthogonalLoop=1;jettySize=auto;html=1;strokeColor=#457B9D;fontColor=#1D3557;fillColor=#A8DADC;" parent="WIyWlLk6GJQsqaUBKTNV-1" source="2e_g-QVYGHSv_7SJw1xX-37" target="2e_g-QVYGHSv_7SJw1xX-44" edge="1">
          <mxGeometry relative="1" as="geometry" />
        </mxCell>
        <mxCell id="VE-9P-0I6FmuzYfHiPfc-7" value="" style="edgeStyle=orthogonalEdgeStyle;rounded=0;orthogonalLoop=1;jettySize=auto;html=1;strokeColor=#67AB9F;" edge="1" parent="WIyWlLk6GJQsqaUBKTNV-1" source="2e_g-QVYGHSv_7SJw1xX-37" target="VE-9P-0I6FmuzYfHiPfc-6">
          <mxGeometry relative="1" as="geometry" />
        </mxCell>
        <mxCell id="2e_g-QVYGHSv_7SJw1xX-37" value="是否成功" style="rhombus;whiteSpace=wrap;html=1;fillColor=#A8DADC;strokeColor=#457B9D;fontColor=#1D3557;rounded=1;" parent="WIyWlLk6GJQsqaUBKTNV-1" vertex="1">
          <mxGeometry x="270" y="1079" width="80" height="80" as="geometry" />
        </mxCell>
        <mxCell id="2e_g-QVYGHSv_7SJw1xX-43" value="" style="edgeStyle=orthogonalEdgeStyle;rounded=0;orthogonalLoop=1;jettySize=auto;html=1;strokeColor=#457B9D;fontColor=#1D3557;fillColor=#A8DADC;" parent="WIyWlLk6GJQsqaUBKTNV-1" source="2e_g-QVYGHSv_7SJw1xX-39" target="2e_g-QVYGHSv_7SJw1xX-42" edge="1">
          <mxGeometry relative="1" as="geometry" />
        </mxCell>
        <mxCell id="2e_g-QVYGHSv_7SJw1xX-39" value="提示返回error code&lt;br&gt;" style="whiteSpace=wrap;html=1;fillColor=#A8DADC;strokeColor=#457B9D;fontColor=#1D3557;rounded=1;" parent="WIyWlLk6GJQsqaUBKTNV-1" vertex="1">
          <mxGeometry x="590" y="1089" width="120" height="60" as="geometry" />
        </mxCell>
        <mxCell id="2e_g-QVYGHSv_7SJw1xX-41" value="否" style="text;html=1;align=center;verticalAlign=middle;resizable=0;points=[];autosize=1;strokeColor=none;fillColor=none;fontColor=#1D3557;" parent="WIyWlLk6GJQsqaUBKTNV-1" vertex="1">
          <mxGeometry x="340" y="1087" width="40" height="30" as="geometry" />
        </mxCell>
        <mxCell id="2e_g-QVYGHSv_7SJw1xX-42" value="结束" style="whiteSpace=wrap;html=1;fillColor=#A8DADC;strokeColor=#457B9D;fontColor=#1D3557;rounded=1;" parent="WIyWlLk6GJQsqaUBKTNV-1" vertex="1">
          <mxGeometry x="770" y="1089" width="120" height="60" as="geometry" />
        </mxCell>
        <mxCell id="2e_g-QVYGHSv_7SJw1xX-47" value="" style="edgeStyle=orthogonalEdgeStyle;rounded=0;orthogonalLoop=1;jettySize=auto;html=1;strokeColor=#457B9D;fontColor=#1D3557;fillColor=#A8DADC;" parent="WIyWlLk6GJQsqaUBKTNV-1" source="2e_g-QVYGHSv_7SJw1xX-44" target="2e_g-QVYGHSv_7SJw1xX-46" edge="1">
          <mxGeometry relative="1" as="geometry" />
        </mxCell>
        <mxCell id="2e_g-QVYGHSv_7SJw1xX-44" value="更新用户项目数据&lt;br&gt;更新投入记录&lt;br&gt;更新项目数据" style="whiteSpace=wrap;html=1;fillColor=#A8DADC;strokeColor=#457B9D;fontColor=#1D3557;rounded=1;" parent="WIyWlLk6GJQsqaUBKTNV-1" vertex="1">
          <mxGeometry x="250" y="1249" width="120" height="60" as="geometry" />
        </mxCell>
        <mxCell id="2e_g-QVYGHSv_7SJw1xX-49" value="" style="edgeStyle=orthogonalEdgeStyle;rounded=0;orthogonalLoop=1;jettySize=auto;html=1;strokeColor=#457B9D;fontColor=#1D3557;fillColor=#A8DADC;" parent="WIyWlLk6GJQsqaUBKTNV-1" source="2e_g-QVYGHSv_7SJw1xX-46" target="2e_g-QVYGHSv_7SJw1xX-48" edge="1">
          <mxGeometry relative="1" as="geometry" />
        </mxCell>
        <mxCell id="2e_g-QVYGHSv_7SJw1xX-46" value="成功提示&lt;br&gt;站内信" style="whiteSpace=wrap;html=1;fillColor=#A8DADC;strokeColor=#457B9D;fontColor=#1D3557;rounded=1;" parent="WIyWlLk6GJQsqaUBKTNV-1" vertex="1">
          <mxGeometry x="250" y="1389" width="120" height="60" as="geometry" />
        </mxCell>
        <mxCell id="2e_g-QVYGHSv_7SJw1xX-48" value="结束" style="whiteSpace=wrap;html=1;fillColor=#A8DADC;strokeColor=#457B9D;fontColor=#1D3557;rounded=1;" parent="WIyWlLk6GJQsqaUBKTNV-1" vertex="1">
          <mxGeometry x="250" y="1529" width="120" height="60" as="geometry" />
        </mxCell>
        <mxCell id="2e_g-QVYGHSv_7SJw1xX-50" value="存在分布式事务的问题&lt;br&gt;如果出现问题调用现货扣款成功，更新失败，需要启动定时任务补偿&lt;br&gt;：用户项目数据实时性可能有延迟" style="text;html=1;align=center;verticalAlign=middle;resizable=0;points=[];autosize=1;strokeColor=none;fillColor=#FF3333;fontColor=#1D3557;" parent="WIyWlLk6GJQsqaUBKTNV-1" vertex="1">
          <mxGeometry x="450" y="1210" width="380" height="60" as="geometry" />
        </mxCell>
        <mxCell id="2e_g-QVYGHSv_7SJw1xX-51" value="现货接口" style="whiteSpace=wrap;html=1;fillColor=#A8DADC;strokeColor=#457B9D;fontColor=#1D3557;rounded=1;" parent="WIyWlLk6GJQsqaUBKTNV-1" vertex="1">
          <mxGeometry x="450" y="949" width="120" height="60" as="geometry" />
        </mxCell>
        <mxCell id="2e_g-QVYGHSv_7SJw1xX-60" style="edgeStyle=orthogonalEdgeStyle;rounded=0;orthogonalLoop=1;jettySize=auto;html=1;entryX=0.5;entryY=0;entryDx=0;entryDy=0;strokeColor=#457B9D;fontColor=#1D3557;fillColor=#A8DADC;" parent="WIyWlLk6GJQsqaUBKTNV-1" source="2e_g-QVYGHSv_7SJw1xX-58" target="2e_g-QVYGHSv_7SJw1xX-31" edge="1">
          <mxGeometry relative="1" as="geometry" />
        </mxCell>
        <mxCell id="2e_g-QVYGHSv_7SJw1xX-58" value="先插入投入记录表&lt;br&gt;状态0&lt;br&gt;冻结额度" style="rounded=1;whiteSpace=wrap;html=1;strokeColor=#457B9D;fontColor=#1D3557;fillColor=#A8DADC;" parent="WIyWlLk6GJQsqaUBKTNV-1" vertex="1">
          <mxGeometry x="250" y="790" width="120" height="60" as="geometry" />
        </mxCell>
        <mxCell id="2e_g-QVYGHSv_7SJw1xX-61" value="权限这期不做" style="text;html=1;align=center;verticalAlign=middle;resizable=0;points=[];autosize=1;strokeColor=none;fillColor=#FF6666;fontColor=#1D3557;" parent="WIyWlLk6GJQsqaUBKTNV-1" vertex="1">
          <mxGeometry x="100" y="178" width="100" height="30" as="geometry" />
        </mxCell>
        <mxCell id="VE-9P-0I6FmuzYfHiPfc-8" style="edgeStyle=orthogonalEdgeStyle;rounded=0;orthogonalLoop=1;jettySize=auto;html=1;entryX=0;entryY=0.5;entryDx=0;entryDy=0;strokeColor=#33FFFF;" edge="1" parent="WIyWlLk6GJQsqaUBKTNV-1" source="VE-9P-0I6FmuzYfHiPfc-6" target="2e_g-QVYGHSv_7SJw1xX-39">
          <mxGeometry relative="1" as="geometry" />
        </mxCell>
        <mxCell id="VE-9P-0I6FmuzYfHiPfc-6" value="更新记录失败&lt;br&gt;释放额度" style="whiteSpace=wrap;html=1;fillColor=#A8DADC;strokeColor=#457B9D;fontColor=#1D3557;rounded=1;" vertex="1" parent="WIyWlLk6GJQsqaUBKTNV-1">
          <mxGeometry x="410" y="1089" width="120" height="60" as="geometry" />
        </mxCell>
      </root>
    </mxGraphModel>
  </diagram>
</mxfile>
